<svg preserveAspectRatio="none" overflow="visible" style="display: block;" width="13.285" height="13.4191" viewBox="0 0 13.285 13.4191" fill="none" xmlns="http://www.w3.org/2000/svg">
<g id="linkedin icon">
<path id="Vector" d="M13.2817 13.4191V13.4185H13.285V8.57742C13.285 6.20912 12.7751 4.38477 10.0064 4.38477C8.67541 4.38477 7.78221 5.11517 7.41756 5.80762H7.37906V4.60587H4.75391V13.4185H7.48741V9.05482C7.48741 7.90587 7.70521 6.79487 9.12806 6.79487C10.53 6.79487 10.5509 8.10607 10.5509 9.12852V13.4191H13.2817Z" fill="#7B66FF"/>
<path id="Vector_2" d="M0.21875 4.60645H2.95555V13.4191H0.21875V4.60645Z" fill="#7B66FF"/>
<path id="Vector_3" d="M1.5851 0C0.71005 0 0 0.71005 0 1.5851C0 2.46015 0.71005 3.18505 1.5851 3.18505C2.46015 3.18505 3.1702 2.46015 3.1702 1.5851C3.16965 0.71005 2.4596 0 1.5851 0V0Z" fill="#7B66FF"/>
</g>
</svg>
